<svg width="44" height="50" viewBox="0 0 44 50" fill="none" xmlns="http://www.w3.org/2000/svg">
<path fill-rule="evenodd" clip-rule="evenodd" d="M29.25 5.66665V3.24998C29.25 1.91598 30.3327 0.833313 31.6667 0.833313C33.0007 0.833313 34.0833 1.91598 34.0833 3.24998V5.66665C39.4242 5.66665 43.75 9.9949 43.75 15.3333V39.5C43.75 44.8384 39.4242 49.1666 34.0833 49.1666C27.1741 49.1666 16.8283 49.1666 9.91667 49.1666C4.57825 49.1666 0.25 44.8384 0.25 39.5V15.3333C0.25 9.9949 4.57825 5.66665 9.91667 5.66665V3.24998C9.91667 1.91598 10.9993 0.833313 12.3333 0.833313C13.6673 0.833313 14.75 1.91598 14.75 3.24998V5.66665H29.25ZM38.9167 25H5.08333V39.5C5.08333 42.168 7.24867 44.3333 9.91667 44.3333H34.0833C36.7537 44.3333 38.9167 42.168 38.9167 39.5V25ZM26.5748 33.8329L29.9822 30.5172C30.9392 29.5868 32.469 29.6086 33.3994 30.5656C34.3298 31.5202 34.3081 33.0523 33.3535 33.9827L28.3848 38.8161C27.4955 39.6788 26.1011 39.732 25.1513 38.9393L22.4302 36.6677C21.4055 35.8146 21.2677 34.2896 22.1232 33.265C22.9763 32.2403 24.5012 32.1026 25.5259 32.9581L26.5748 33.8329ZM34.0833 10.5V12.9166C34.0833 14.2506 33.0007 15.3333 31.6667 15.3333C30.3327 15.3333 29.25 14.2506 29.25 12.9166V10.5H14.75V12.9166C14.75 14.2506 13.6673 15.3333 12.3333 15.3333C10.9993 15.3333 9.91667 14.2506 9.91667 12.9166V10.5C7.24867 10.5 5.08333 12.6629 5.08333 15.3333V20.1666H38.9167V15.3333C38.9167 12.6629 36.7537 10.5 34.0833 10.5Z" fill="white"/>
</svg>
