<svg width="26" height="30" viewBox="0 0 26 30" fill="none" xmlns="http://www.w3.org/2000/svg">
<path fill-rule="evenodd" clip-rule="evenodd" d="M17.25 3.66665V2.24998C17.25 1.46798 17.8847 0.833313 18.6667 0.833313C19.4487 0.833313 20.0833 1.46798 20.0833 2.24998V3.66665C23.2142 3.66665 25.75 6.2039 25.75 9.33331V23.5C25.75 26.6294 23.2142 29.1666 20.0833 29.1666C16.0331 29.1666 9.96833 29.1666 5.91667 29.1666C2.78725 29.1666 0.25 26.6294 0.25 23.5V9.33331C0.25 6.2039 2.78725 3.66665 5.91667 3.66665V2.24998C5.91667 1.46798 6.55133 0.833313 7.33333 0.833313C8.11533 0.833313 8.75 1.46798 8.75 2.24998V3.66665H17.25ZM22.9167 15H3.08333V23.5C3.08333 25.064 4.35267 26.3333 5.91667 26.3333H20.0833C21.6488 26.3333 22.9167 25.064 22.9167 23.5V15ZM15.6818 20.1779L17.6792 18.2342C18.2402 17.6888 19.137 17.7016 19.6824 18.2626C20.2278 18.8222 20.2151 19.7203 19.6555 20.2657L16.7428 23.0991C16.2215 23.6048 15.4041 23.636 14.8473 23.1713L13.2522 21.8397C12.6515 21.3396 12.5707 20.4456 13.0722 19.845C13.5723 19.2443 14.4662 19.1636 15.0669 19.6651L15.6818 20.1779ZM20.0833 6.49998V7.91665C20.0833 8.69865 19.4487 9.33331 18.6667 9.33331C17.8847 9.33331 17.25 8.69865 17.25 7.91665V6.49998H8.75V7.91665C8.75 8.69865 8.11533 9.33331 7.33333 9.33331C6.55133 9.33331 5.91667 8.69865 5.91667 7.91665V6.49998C4.35267 6.49998 3.08333 7.7679 3.08333 9.33331V12.1666H22.9167V9.33331C22.9167 7.7679 21.6488 6.49998 20.0833 6.49998Z" fill="#ACACAC"/>
</svg>
