<svg width="26" height="30" viewBox="0 0 26 30" fill="none" xmlns="http://www.w3.org/2000/svg">
<path fill-rule="evenodd" clip-rule="evenodd" d="M14.4167 27.75C14.4167 28.5335 15.0499 29.1667 15.8333 29.1667H20.0833C21.5864 29.1667 23.0272 28.5703 24.0897 27.5078C25.1522 26.4453 25.75 25.0031 25.75 23.5C25.75 22.6869 25.75 22.0834 25.75 22.0834C25.75 21.3014 25.1153 20.6667 24.3333 20.6667H15.8333C15.0499 20.6667 14.4167 21.3014 14.4167 22.0834V27.75ZM10.1667 29.1667C10.9487 29.1667 11.5833 28.5335 11.5833 27.75V13.5834C11.5833 12.8014 10.9487 12.1667 10.1667 12.1667H1.66667C0.88325 12.1667 0.25 12.8014 0.25 13.5834V23.5C0.25 25.0031 0.846413 26.4453 1.90891 27.5078C2.97141 28.5703 4.41358 29.1667 5.91667 29.1667H10.1667ZM22.9167 23.5H17.25V26.3334H20.0833C20.8342 26.3334 21.5553 26.0359 22.0865 25.5046C22.6178 24.9734 22.9167 24.2523 22.9167 23.5ZM8.75 26.3334V15H3.08333V23.5C3.08333 24.2523 3.38083 24.9734 3.9135 25.5046C4.44475 26.0359 5.16442 26.3334 5.91667 26.3334H8.75ZM15.8333 0.833374C15.0499 0.833374 14.4167 1.46804 14.4167 2.25004V16.4167C14.4167 17.2001 15.0499 17.8334 15.8333 17.8334H24.3333C25.1153 17.8334 25.75 17.2001 25.75 16.4167V6.50004C25.75 4.99837 25.1522 3.5562 24.0897 2.4937C23.0272 1.4312 21.5864 0.833374 20.0833 0.833374H15.8333ZM17.25 3.66671V15H22.9167V6.50004C22.9167 5.74921 22.6178 5.02812 22.0865 4.49687C21.5553 3.96562 20.8342 3.66671 20.0833 3.66671H17.25ZM11.5833 2.25004C11.5833 1.46804 10.9487 0.833374 10.1667 0.833374H5.91667C4.41358 0.833374 2.97141 1.4312 1.90891 2.4937C0.846413 3.5562 0.25 4.99837 0.25 6.50004V7.91671C0.25 8.70012 0.88325 9.33337 1.66667 9.33337H10.1667C10.9487 9.33337 11.5833 8.70012 11.5833 7.91671V2.25004ZM8.75 3.66671H5.91667C5.16442 3.66671 4.44475 3.96562 3.9135 4.49687C3.38083 5.02812 3.08333 5.74921 3.08333 6.50004H8.75V3.66671Z" fill="white"/>
</svg>
