<svg width="95" height="95" viewBox="0 0 95 95" fill="none" xmlns="http://www.w3.org/2000/svg">
<path d="M47.5 1.99998C47.5 0.89541 48.396 -0.00441747 49.4996 0.042068C58.45 0.419077 67.1266 3.32094 74.5171 8.4317C82.4568 13.9223 88.5351 21.7016 91.9425 30.7334C95.3499 39.7653 95.9246 49.621 93.59 58.9876C91.2554 68.3543 86.1224 76.7874 78.8746 83.1635C71.6269 89.5396 62.6085 93.5561 53.0206 94.6781C43.4328 95.8 33.7308 93.9741 25.2067 89.4435C16.6827 84.9129 9.74143 77.8928 5.30741 69.3181C1.18011 61.3366 -0.592401 52.3609 0.174244 43.4355C0.268771 42.335 1.27543 41.561 2.371 41.7018L16.9269 43.5719C18.0225 43.7127 18.7892 44.7151 18.7247 45.8178C18.4232 50.9741 19.5126 56.1302 21.8963 60.7399C24.587 65.9432 28.7992 70.2033 33.9718 72.9526C39.1444 75.7019 45.0319 76.8099 50.8501 76.1291C56.6683 75.4483 62.1409 73.0109 66.5391 69.1417C70.9372 65.2725 74.0521 60.155 75.4688 54.471C76.8855 48.7871 76.5368 42.8063 74.4691 37.3255C72.4014 31.8447 68.7128 27.124 63.8948 23.7922C59.6265 20.8405 54.6512 19.1029 49.4985 18.7449C48.3966 18.6683 47.5 17.7801 47.5 16.6755V1.99998Z" fill="url(#paint0_linear_32_6)"/>
<defs>
<linearGradient id="paint0_linear_32_6" x1="47.5001" y1="-1.50642e-06" x2="28.5001" y2="67" gradientUnits="userSpaceOnUse">
<stop stop-color="#1362FC"/>
<stop offset="1" stop-color="#35B6FF"/>
</linearGradient>
</defs>
</svg>
